<?xml version="1.0" encoding="UTF-8"?>
<svg width="32" height="32" viewBox="0 0 32 32" fill="none" xmlns="http://www.w3.org/2000/svg">
  <rect width="32" height="32" rx="8" fill="#FF4500"/>
  <path d="M24 16C24 20.4183 20.4183 24 16 24C11.5817 24 8 20.4183 8 16C8 11.5817 11.5817 8 16 8C20.4183 8 24 11.5817 24 16Z" fill="white"/>
  <path d="M19 15.5C19 16.3284 18.3284 17 17.5 17C16.6716 17 16 16.3284 16 15.5C16 14.6716 16.6716 14 17.5 14C18.3284 14 19 14.6716 19 15.5Z" fill="#FF4500"/>
  <path d="M13 15.5C13 16.3284 12.3284 17 11.5 17C10.6716 17 10 16.3284 10 15.5C10 14.6716 10.6716 14 11.5 14C12.3284 14 13 14.6716 13 15.5Z" fill="#FF4500"/>
  <path d="M16 19C17.6569 19 19 18.3284 19 17.5C19 16.6716 17.6569 16 16 16C14.3431 16 13 16.6716 13 17.5C13 18.3284 14.3431 19 16 19Z" fill="#FF4500"/>
</svg>